# xmcd
#
# Track frame offsets:
# 150
# 32933
# 45698
# 54402
# 60896
# 68697
# 75845
# 91646
# 106268
# 116563
# 123206
# 130426
# 147220
# 160679
# 176533
# 184872
# 190452
# 208846
# 215547
#
# Disc length: 3094 seconds
#
#
# Revision: 0
# Processed by: cddbd v1.5.1PL2 Copyright (c) Steve Scherf et al.
# Submitted via: FreeRIP 2.944 
#
DISCID=020c1413
DTITLE=Mestre Jogo de Dentro - No Toque Do Berimbau. Capoeira Angola
DYEAR=1900
DGENRE=Capoeira Angola
TTITLE0=Ritmo
TTITLE1=Seu Passado
TTITLE2=Jogo de Mandinga
TTITLE3=Eu Vou Para Angola
TTITLE4=A Cobra Venenosa
TTITLE5=Já Guardei a Semente
TTITLE6=Tira A Mão Daqui
TTITLE7=Olha Là Seu Olho Gordo
TTITLE8=Berimbau Gunga
TTITLE9=Capoeira Mãe
TTITLE10=Um Dia São Benedito Me Disse
TTITLE11=A Viola Deu O Sinal
TTITLE12=Angola Tem Malicia
TTITLE13=A Verdade É Como O Sol
TTITLE14=Angola Me Chama
TTITLE15=O Vento Levou
TTITLE16=São Bento Pequeno
TTITLE17=Dà Uma Pisa Nele
TTITLE18=Angola Não Posso Esquecer
EXTD=
EXTT0=
EXTT1=
EXTT2=
EXTT3=
EXTT4=
EXTT5=
EXTT6=
EXTT7=
EXTT8=
EXTT9=
EXTT10=
EXTT11=
EXTT12=
EXTT13=
EXTT14=
EXTT15=
EXTT16=
EXTT17=
EXTT18=
PLAYORDER=
